<svg xmlns="http://www.w3.org/2000/svg" viewBox="0 0 92 92" width="92" height="92"><circle cx="46" cy="46" r="44" fill="#FFFBFD" stroke="#B7A0D8" stroke-width="2"/><circle cx="46" cy="46" r="38" fill="none" stroke="#5A3657" stroke-width="1"/><path d="M50.572495088408644 58.796856581532424Q49.278192534381134 58.796856581532424 48.64165029469548 58.21335952848723Q48.00510805500982 57.629862475442046 48.00510805500982 56.7811394891945Q48.00510805500982 56.16581532416503 48.55677799607072 54.82907662082515Q49.10844793713163 53.49233791748527 50.8483300589391 50.86129666011788Q52.885265225933196 47.82711198428291 55.43143418467583 44.73988212180747Q57.97760314341846 41.65265225933203 60.640471512770134 38.74577603143419Q63.303339882121804 35.83889980353635 65.77524557956778 33.313948919449906Q68.24715127701376 30.78899803536346 70.15677799607073 28.900589390962676Q69.20196463654224 29.57956777996071 68.03497053045186 30.555599214145385Q66.86797642436149 31.53163064833006 65.1705304518664 33.06994106090374Q63.47308447937132 34.60825147347741 60.99056974459725 36.94223968565816Q58.50805500982318 39.27622789783891 54.9434184675835 42.69233791748527Q53.16110019646365 44.38978388998036 49.77681728880157 47.89076620825148Q46.392534381139484 51.3917485265226 41.830648330058935 56.71748526522594Q40.72730844793713 58.01178781925344 40.31355599214145 58.308840864440086Q39.89980353634577 58.60589390962672 39.6664047151277 58.60589390962672Q39.51787819253438 58.60589390962672 39.358742632612966 58.39371316306484Q39.19960707269155 58.181532416502954 39.19960707269155 57.714734774066805Q39.19960707269155 55.93241650294696 40.43025540275049 53.03614931237721Q41.66090373280943 50.13988212180747 43.920628683693515 46.47976424361494Q46.1803536345776 42.8196463654224 49.278192534381134 38.724557956778Q52.37603143418467 34.6294695481336 56.08919449901768 30.428290766208253Q54.90098231827112 31.51041257367387 51.75009823182711 34.77799607072692Q48.5992141453831 38.04557956777997 43.018860510805496 44.17760314341847Q38.18113948919449 49.482121807465624 34.31944990176817 52.739096267190575Q30.457760314341844 55.99607072691553 27.487229862475438 57.502554027504914Q24.941060903732804 58.775638506876234 22.988998035363455 58.775638506876234Q20.994499017681726 58.775638506876234 19.99724950884086 58.01178781925344Q18.999999999999996 57.24793713163065 18.999999999999996 56.05972495088409Q18.999999999999996 55.08369351669941 19.657760314341843 54.60628683693517Q20.31552062868369 54.128880157170926 20.973280943025536 54.128880157170926Q21.312770137524556 54.128880157170926 21.684086444007853 54.362278978389Q22.055402750491155 54.595677799607074 22.055402750491155 55.1049115913556Q22.055402750491155 55.50805500982319 21.69469548133595 55.83693516699411Q21.333988212180742 56.16581532416503 20.845972495088404 56.16581532416503Q20.570137524557953 56.16581532416503 20.304911591355598 56.12337917485266Q20.03968565815324 56.08094302554028 19.82750491159135 55.93241650294696Q19.82750491159135 56.017288801571716 19.81689587426326 56.08094302554028Q19.806286836935165 56.14459724950885 19.806286836935165 56.18703339882122Q19.806286836935165 57.099410609037335 20.61257367387033 57.65108055009824Q21.418860510805498 58.202750491159144 22.967779960707265 58.202750491159144Q24.537917485265222 58.202750491159144 26.585461689587426 57.26915520628684Q28.633005893909626 56.33555992141454 31.42318271119843 54.16070726915521Q34.21335952848723 51.98585461689588 37.9901768172888 48.293909626719056Q41.76699410609037 44.60196463654224 46.79567779960707 39.106483300589396Q51.0180746561886 34.50216110019647 53.72337917485265 31.92416502946955Q56.4286836935167 29.346168958742634 57.79724950884086 28.30648330058939Q59.165815324165024 27.266797642436153 59.35677799607073 27.266797642436153Q59.50530451866405 27.266797642436153 59.71748526522593 27.319842829076624Q59.929666011787816 27.372888015717095 59.929666011787816 27.478978388998037Q59.929666011787816 27.60628683693517 59.611394891945 27.882121807465623Q59.3992141453831 28.073084479371317 59.09155206286837 28.34891944990177Q58.783889980353635 28.62475442043222 58.338310412573676 29.070333988212184Q57.78664047151277 29.664440078585464 56.651473477406675 31.266404715127702Q55.51630648330058 32.86836935166994 54.02043222003929 35.12809430255403Q52.524557956778 37.38781925343812 50.837721021611 40.01886051080551Q49.15088408644401 42.649901768172896 47.4958742632613 45.32337917485266Q45.84086444007858 47.99685658153242 44.38742632612966 50.39449901768173Q42.93398821218074 52.79214145383104 41.88369351669941 54.62750491159136Q40.83339882121807 56.462868369351675 40.38781925343811 57.37524557956778Q42.70058939096267 54.70176817288802 44.578388998035365 52.579960707269166Q46.45618860510805 50.4581532416503 48.18546168958743 48.601571709233795Q49.9147347740668 46.744990176817296 51.72888015717093 44.899017681728886Q53.54302554027505 43.053045186640475 55.70726915520629 40.963064833005895Q57.87151277013753 38.873084479371315 60.62986247544204 36.26326129666012Q64.30058939096267 32.84715127701375 66.75127701375246 30.86326129666012Q69.20196463654224 28.879371316306486 70.66601178781926 28.041257367387036Q72.13005893909627 27.203143418467587 72.78781925343812 27.203143418467587Q73.0 27.203143418467587 73.0 27.372888015717095Q73.0 27.521414538310417 72.44833005893909 27.903339882121813Q71.8966601178782 28.285265225933205 71.26011787819253 28.83693516699411Q69.15952848722986 30.682907662082517 66.70884086444008 33.557956777996075Q64.25815324165029 36.43300589390963 61.690766208251475 39.84911591355599Q59.12337917485266 43.26522593320236 56.6196463654224 46.78742632612967Q54.11591355599214 50.30962671905698 51.90923379174852 53.44990176817289Q50.91198428290766 54.91394891944991 50.43457760314342 55.667190569744605Q49.957170923379174 56.420432220039295 49.82986247544204 56.74931237721022Q49.70255402750491 57.078192534381145 49.70255402750491 57.33280943025541Q49.70255402750491 58.223968565815326 50.93320235756385 58.223968565815326Q51.54852652259332 58.223968565815326 52.598821218074654 57.916306483300595Q53.64911591355599 57.60864440078586 54.79489194499018 57.02514734774067Q55.940667976424365 56.441650294695485 56.7893909626719 55.61414538310413Q56.89548133595285 55.65658153241651 56.89548133595285 55.889980353634584Q56.89548133595285 56.20825147347741 56.7893909626719 56.37799607072692Q55.877013752455795 57.14184675834971 54.688801571709234 57.68290766208251Q53.50058939096267 58.223968565815326 52.397249508840865 58.510412573673875Q51.293909626719056 58.796856581532424 50.572495088408644 58.796856581532424Z" fill="#8A3F72"/><g transform="translate(46 83) scale(0.75)"><g fill="#FFFFFF" stroke="#5A3657" stroke-width="0.8"><ellipse cx="0" cy="-6" rx="2.6" ry="5.4" transform="rotate(0)"/><ellipse cx="0" cy="-6" rx="2.6" ry="5.4" transform="rotate(40)"/><ellipse cx="0" cy="-6" rx="2.6" ry="5.4" transform="rotate(80)"/><ellipse cx="0" cy="-6" rx="2.6" ry="5.4" transform="rotate(120)"/><ellipse cx="0" cy="-6" rx="2.6" ry="5.4" transform="rotate(160)"/><ellipse cx="0" cy="-6" rx="2.6" ry="5.4" transform="rotate(200)"/><ellipse cx="0" cy="-6" rx="2.6" ry="5.4" transform="rotate(240)"/><ellipse cx="0" cy="-6" rx="2.6" ry="5.4" transform="rotate(280)"/><ellipse cx="0" cy="-6" rx="2.6" ry="5.4" transform="rotate(320)"/></g><circle r="2.8" fill="#F6D58E" stroke="#5A3657" stroke-width="0.7"/></g></svg>